<?xml version="1.0" standalone="no"?>
<!DOCTYPE svg PUBLIC "-//W3C//DTD SVG 20010904//EN"
 "http://www.w3.org/TR/2001/REC-SVG-20010904/DTD/svg10.dtd">
<svg version="1.0" xmlns="http://www.w3.org/2000/svg"
 width="512.000000pt" height="512.000000pt" viewBox="0 0 512.000000 512.000000"
 preserveAspectRatio="xMidYMid meet">
<metadata>
Created by potrace 1.14, written by Peter Selinger 2001-2017
</metadata>
<g transform="translate(0.000000,512.000000) scale(0.100000,-0.100000)"
fill="#000000" stroke="none">
<path d="M2572 4664 c-69 -35 -67 -18 -68 -524 -1 -250 -2 -458 -3 -462 -1 -3
-25 3 -53 15 -41 16 -76 21 -158 21 -99 1 -109 -1 -171 -31 -147 -73 -242
-228 -248 -404 -9 -258 196 -447 470 -434 194 9 371 175 397 373 4 31 7 301 7
599 -1 530 0 543 19 537 10 -3 84 -39 164 -80 159 -81 196 -94 236 -87 35 7
82 54 89 89 6 35 -9 90 -33 112 -29 27 -546 283 -582 288 -20 3 -46 -2 -66
-12z"/>
<path d="M1334 2640 c-222 -58 -398 -235 -468 -470 -21 -70 -29 -221 -15 -296
42 -228 205 -421 426 -501 85 -31 127 -37 238 -36 308 2 567 201 645 493 28
104 18 296 -20 395 -76 197 -219 336 -413 402 -108 36 -282 42 -393 13z"/>
<path d="M3419 2633 c-106 -30 -207 -90 -285 -167 -193 -193 -246 -515 -126
-766 15 -30 29 -57 32 -60 3 -3 18 -23 34 -44 206 -276 633 -344 919 -147 194
133 289 330 281 579 -6 174 -66 315 -184 432 -175 175 -433 241 -671 173z"/>
<path d="M754 1362 c-183 -111 -325 -275 -404 -470 -38 -94 -67 -232 -66 -315
1 -61 4 -69 34 -99 l32 -33 1148 -2 c898 -2 1152 0 1171 10 47 24 66 63 66
135 -2 222 -114 466 -295 640 -47 45 -206 158 -231 164 -8 1 -39 -21 -69 -50
-122 -118 -293 -202 -480 -238 -63 -12 -233 -10 -305 2 -187 34 -350 116 -489
248 -26 25 -49 46 -50 45 0 0 -28 -17 -62 -37z"/>
<path d="M2855 1358 c-76 -43 -115 -75 -115 -94 0 -6 18 -38 40 -71 149 -223
222 -502 187 -711 l-7 -42 906 2 906 3 34 37 c34 37 34 37 29 120 -5 98 -7
108 -39 214 -61 203 -199 389 -380 511 -120 81 -107 80 -178 12 -159 -153
-379 -240 -613 -241 -258 -1 -483 83 -640 239 l-61 60 -69 -39z"/>
</g>
</svg>
